<svg width="35" height="35" viewBox="0 0 35 35" fill="none" xmlns="http://www.w3.org/2000/svg">
<path fillRule="evenodd" clipRule="evenodd" d="M17.4993 2.91675C9.4452 2.91675 2.91602 9.44593 2.91602 17.5001C2.91602 25.5542 9.4452 32.0834 17.4993 32.0834C25.5535 32.0834 32.0827 25.5542 32.0827 17.5001C32.0827 9.44593 25.5535 2.91675 17.4993 2.91675ZM12.0932 12.0939C12.6627 11.5244 13.586 11.5244 14.1555 12.0939L17.4993 15.4377L20.8432 12.0939C21.4127 11.5244 22.336 11.5244 22.9055 12.0939C23.4751 12.6634 23.4751 13.5868 22.9055 14.1563L19.5617 17.5001L22.9055 20.8439C23.4751 21.4134 23.4751 22.3368 22.9055 22.9063C22.336 23.4758 21.4127 23.4758 20.8432 22.9063L17.4993 19.5625L14.1555 22.9063C13.586 23.4758 12.6627 23.4758 12.0932 22.9063C11.5236 22.3368 11.5236 21.4134 12.0932 20.8439L15.437 17.5001L12.0932 14.1563C11.5236 13.5868 11.5236 12.6634 12.0932 12.0939Z" fill="#D9D9D9"/>
</svg>
